<?xml version="1.0"?>
<svg xmlns="http://www.w3.org/2000/svg" id="Layer_1" data-name="Layer 1" viewBox="0 0 512 512" width="512" height="512"><title>Cruise</title><path d="M408.04,269.8c11.64,5.08,15.98,20.28,8.18,29.79l-92.26,125.3c-4.36-2.46-9.59-4.32-17.52-4.32-23.25,0-23.25,16-46.5,16a34.3,34.3,0,0,1-15.49-3.25V211l.4-.14,109.34,39.49Zm-65.59,28.48a20.645,20.645,0,1,0-20.64,20.65A20.639,20.639,0,0,0,342.45,298.28Z" style="fill:#af593c"/><path d="M244.45,211,135.2,250.1l-.06-.18v-68.3a12,12,0,0,1,12-12H342.35a12.01,12.01,0,0,1,12,12v68.3l-.16.43L244.85,210.86Z" style="fill:#f8ec7d"/><path d="M321.81,277.64a20.645,20.645,0,1,1-20.65,20.64A20.639,20.639,0,0,1,321.81,277.64Z" style="fill:#f8ec7d"/><path d="M329.39,157.75v11.87H234.98V157.75a12,12,0,0,1,12-12h70.41A12,12,0,0,1,329.39,157.75Z" style="fill:#6fe3ff"/><path d="M312.03,122.96v22.79H251.25V122.96c0-11.55,10.49-21.71,22.04-21.71h17.36C302.2,101.25,312.03,111.41,312.03,122.96Z" style="fill:#6fe3ff"/><path d="M244.45,211V433.32c-9.71-4.68-14.5-12.75-31.01-12.75-20.57,0-22.94,12.52-39.3,15.41L73.51,299.84c-8.68-9.76-4.34-24.96,7.6-30.38L135.2,250.1Zm-56.12,85.91a20.645,20.645,0,1,0-20.65,20.64A20.647,20.647,0,0,0,188.33,296.91Z" style="fill:#e48e66"/><path d="M216.53,146.83v22.79H156.85V146.83c0-10.8,7.92-20.37,18.38-21.57a18.292,18.292,0,0,1,2.23-.13H197c.39,0,.78.01,1.16.04C209.08,125.82,216.53,135.67,216.53,146.83Z" style="fill:#6fe3ff"/><path d="M198.16,125.13v.04c-.38-.03-.77-.04-1.16-.04H177.46a18.292,18.292,0,0,0-2.23.13l-.02-.13V29.63h22.95Z" style="fill:#6fe3ff"/><path d="M167.68,276.27a20.64,20.64,0,1,1-20.64,20.64A20.647,20.647,0,0,1,167.68,276.27Z" style="fill:#f8ec7d"/><path d="M167.68,324.55a27.64,27.64,0,1,0-27.64-27.64A27.676,27.676,0,0,0,167.68,324.55Zm0-41.28a13.64,13.64,0,1,1-13.64,13.64A13.66,13.66,0,0,1,167.68,283.27Z" style="fill:#63316d"/><path d="M321.81,325.93a27.645,27.645,0,1,0-27.65-27.65A27.676,27.676,0,0,0,321.81,325.93Zm0-41.29a13.645,13.645,0,1,1-13.65,13.64A13.656,13.656,0,0,1,321.81,284.64Z" style="fill:#63316d"/><path d="M160.23,428.939c-5.177-1.067-8.569-3.388-12.561-6.136-6.29-4.328-13.418-9.233-27.219-9.233a7,7,0,1,0,0,14c9.449,0,13.788,2.986,19.281,6.766,6.29,4.329,13.418,9.234,27.219,9.234a48.105,48.105,0,0,0,8.407-.7c8.61-1.52,14.024-5.248,18.8-8.536,5.492-3.78,9.831-6.767,19.283-6.767s13.791,2.988,19.287,6.77a63.607,63.607,0,0,0,8.688,5.287,41.25,41.25,0,0,0,18.525,3.943c13.8,0,20.929-4.9,27.219-9.234,5.493-3.78,9.832-6.766,19.281-6.766,7.071,0,11.085,1.727,14.1,3.427,1.763.987,3.435,2.137,5.2,3.354,6.285,4.321,13.409,9.219,27.2,9.219,13.807,0,20.938-4.906,27.229-9.235,5.493-3.779,9.833-6.765,19.281-6.765a7,7,0,0,0,0-14c-13.8,0-20.928,4.905-27.217,9.232-5.5,3.781-9.837,6.768-19.293,6.768-9.244,0-13.6-2.861-18.929-6.525l87.746-119.17a25.022,25.022,0,0,0,4.649-21.781,27.471,27.471,0,0,0-15.566-18.71c-.139-.06-.454-.116-.6-.168L361,245.494V181.62A18.4,18.4,0,0,0,342.35,163H336v-5.25c0-9.923-7-18.081-17-18.917V122.96C319,107.4,306.034,94,290.65,94H273.29C257.82,94,244,107.666,244,122.96v16.009a18.942,18.942,0,0,0-16,18.781V163h-4V146.83c0-12.986-8-23.74-19-27.373V29.63A6.558,6.558,0,0,0,198.16,23H175.21c-3.866,0-7.21,2.764-7.21,6.63v90.188a29.772,29.772,0,0,0-18,27.012V163h-2.86A18.821,18.821,0,0,0,128,181.62v63.574L78.681,262.87c-.181.064-.323.136-.5.216A27.743,27.743,0,0,0,62.5,282.476a24.992,24.992,0,0,0,5.547,21.759ZM412.8,285.37a11.143,11.143,0,0,1-1.987,9.781q-.117.141-.225.288L321.7,416.154a42.86,42.86,0,0,0-15.259-2.584c-13.8,0-20.928,4.905-27.218,9.233-5.493,3.781-10.057,6.767-19.507,6.767A34.9,34.9,0,0,1,251,428.511V220.686L405.2,276.3A13.721,13.721,0,0,1,412.8,285.37ZM273.29,108h17.36c7.661,0,14.35,7.124,14.35,14.96V139H258V122.96C258,115.4,265.56,108,273.29,108ZM242,157.75a4.781,4.781,0,0,1,4.98-4.75h70.41a4.478,4.478,0,0,1,4.61,4.75V163H242ZM191,37v81h-9V37ZM164,146.83c0-7.412,5.274-13.9,12.161-14.688a9.614,9.614,0,0,1,1.3-.142H197c.206,0,.412.068.613.083.043,0,.322.039.366.042,7.655.456,12.021,7.932,12.021,14.705V163H164Zm-22,34.79c0-2.757,2.383-4.62,5.14-4.62H342.35a4.4,4.4,0,0,1,4.65,4.62v58.818l-99.947-36.162a6.957,6.957,0,0,0-4.678-.022L142,240.184ZM76.211,285.38a13.4,13.4,0,0,1,7.332-9.437L237,220.94v199.7c-5-3.65-12.259-7.072-23.785-7.072-13.805,0-20.82,4.907-27.109,9.236a39.2,39.2,0,0,1-9.2,5.211l-97.8-132.338c-.125-.17-.244-.333-.385-.491A11.023,11.023,0,0,1,76.211,285.38Z" style="fill:#63316d"/><path d="M383.05,475.37c-12.83,0-18.952-4.214-26.042-9.093-7.871-5.417-16.793-11.557-33.968-11.557s-26.1,6.141-33.969,11.559c-7.087,4.878-13.208,9.091-26.031,9.091s-18.944-4.213-26.031-9.092c-7.869-5.417-16.788-11.558-33.959-11.558s-26.1,6.141-33.969,11.559c-7.087,4.878-13.208,9.091-26.031,9.091s-18.945-4.213-26.031-9.091c-7.872-5.418-16.792-11.559-33.969-11.559a7,7,0,1,0,0,14c12.823,0,18.944,4.213,26.031,9.091,7.871,5.418,16.792,11.559,33.969,11.559s26.1-6.141,33.969-11.559c7.086-4.878,13.208-9.091,26.031-9.091s18.935,4.212,26.02,9.09c7.871,5.419,16.792,11.56,33.97,11.56s26.1-6.141,33.969-11.559c7.087-4.878,13.207-9.091,26.031-9.091s18.943,4.213,26.031,9.09c7.873,5.419,16.8,11.56,33.979,11.56s26.1-6.141,33.969-11.559c7.086-4.878,13.208-9.091,26.031-9.091a7,7,0,0,0,0-14c-17.177,0-26.1,6.141-33.969,11.559C401.994,471.157,395.873,475.37,383.05,475.37Z" style="fill:#63316d"/></svg>
